<?xml version="1.0" standalone="no"?>
<!DOCTYPE svg PUBLIC "-//W3C//DTD SVG 20010904//EN"
 "http://www.w3.org/TR/2001/REC-SVG-20010904/DTD/svg10.dtd">
<svg version="1.0" xmlns="http://www.w3.org/2000/svg"
 width="251.000000pt" height="251.000000pt" viewBox="0 0 251.000000 251.000000"
 preserveAspectRatio="xMidYMid meet">
<metadata>
Created by potrace 1.11, written by Peter Selinger 2001-2013
</metadata>
<g transform="translate(0.000000,251.000000) scale(0.100000,-0.100000)"
fill="#000000" stroke="none">
<path d="M337 2493 c-4 -3 -7 -134 -7 -290 l0 -283 -62 -31 c-187 -95 -298
-324 -255 -530 8 -42 28 -103 43 -135 38 -77 132 -173 212 -213 l62 -31 0
-313 c0 -230 3 -316 12 -325 9 -9 95 -12 328 -12 l315 0 19 -46 c23 -56 109
-151 176 -194 142 -91 341 -100 500 -23 73 35 190 152 216 215 l19 48 281 0
c208 0 285 3 297 12 16 12 17 86 15 1083 l-3 1070 -1081 3 c-594 1 -1084 -1
-1087 -5z m1294 -865 l809 -802 0 -208 0 -208 -218 0 -218 0 -27 28 c-20 21
-30 46 -38 90 -5 34 -24 102 -41 150 -43 119 -229 485 -335 661 l-88 145 -164
94 c-371 212 -710 362 -820 362 -15 0 -39 13 -58 32 l-33 32 0 213 0 213 211
0 211 0 809 -802z m809 421 l0 -381 -307 300 c-170 165 -344 337 -388 381
l-80 81 388 0 387 0 0 -381z m-751 218 c139 -92 105 -306 -56 -353 -77 -22
-141 -6 -198 50 -72 72 -80 168 -22 255 55 83 187 106 276 48z m-1054 -430
c150 -52 475 -215 698 -350 l58 -35 -143 -83 c-213 -123 -510 -270 -623 -308
-159 -53 -246 -44 -372 41 -81 54 -110 87 -150 173 -26 55 -28 70 -28 175 0
109 2 119 32 183 35 73 115 162 174 192 97 51 230 55 354 12z m1563 -86 c125
-64 149 -216 49 -319 -90 -93 -260 -65 -316 50 -23 48 -27 119 -10 165 14 37
66 92 104 109 45 20 129 17 173 -5z m-636 -546 c175 -307 285 -549 307 -672
13 -68 -3 -172 -35 -234 -23 -46 -109 -134 -158 -163 -132 -77 -331 -75 -458
5 -53 34 -129 112 -151 155 -18 36 -47 151 -47 187 0 101 182 493 378 814 48
80 57 90 68 75 6 -9 50 -84 96 -167z m-237 103 c-14 -24 -37 -65 -52 -91 l-27
-48 -38 38 c-21 20 -36 39 -33 41 5 5 168 101 173 101 2 1 -8 -18 -23 -41z
m-543 -515 l186 -188 -5 -97 -6 -98 -278 0 -279 0 0 275 0 275 68 1 c37 1 78
5 92 9 14 4 27 8 30 9 3 1 89 -83 192 -186z"/>
<path d="M1530 2213 c-42 -15 -79 -73 -47 -73 19 0 47 -33 47 -55 0 -10 -10
-29 -22 -43 -23 -23 -23 -24 -3 -35 57 -34 112 -29 154 14 90 89 -9 236 -129
192z"/>
<path d="M2029 1661 c-33 -34 -37 -51 -11 -51 44 0 57 -58 21 -96 l-21 -22 26
-18 c58 -38 146 -11 172 53 18 42 18 58 -2 99 -33 69 -132 87 -185 35z"/>
<path d="M567 666 c-24 -22 -124 -206 -112 -206 9 0 146 69 182 91 43 27 61
80 39 114 -22 34 -73 34 -109 1z"/>
</g>
</svg>
