<?xml version="1.0" encoding="utf-8"?>
<!-- Generator: Adobe Illustrator 21.0.0, SVG Export Plug-In . SVG Version: 6.00 Build 0)  -->
<svg version="1.1" xmlns="http://www.w3.org/2000/svg" xmlns:xlink="http://www.w3.org/1999/xlink" x="0px" y="0px"
	 viewBox="0 0 27 27" enable-background="new 0 0 27 27" xml:space="preserve">
<path fill="#242323" d="M13.5,0C6.1,0,0,6.1,0,13.5S6.1,27,13.5,27S27,20.9,27,13.5S20.9,0,13.5,0z M19.4,14.6h-4.8v4.8
	c0,0.6-0.5,1.1-1.1,1.1s-1.1-0.5-1.1-1.1v-4.8H7.6c-0.6,0-1.1-0.5-1.1-1.1s0.5-1.1,1.1-1.1h4.8V7.6c0-0.6,0.5-1.1,1.1-1.1
	s1.1,0.5,1.1,1.1v4.8h4.8c0.6,0,1.1,0.5,1.1,1.1S20,14.6,19.4,14.6z"/>
</svg>
