<?xml version="1.0" encoding="utf-8"?>
<!-- Generator: Adobe Illustrator 21.0.0, SVG Export Plug-In . SVG Version: 6.00 Build 0)  -->
<svg version="1.1" id="Слой_1" xmlns="http://www.w3.org/2000/svg" xmlns:xlink="http://www.w3.org/1999/xlink" x="0px" y="0px"
	 viewBox="0 0 27 27" enable-background="new 0 0 27 27" xml:space="preserve">
<path d="M24.5,0C24.5,0,24.5,0,24.5,0L12.4,0C10.5,0,9,1.5,9,3.4v1.1c0,0.6,0.5,1.1,1.1,1.1s1.1-0.5,1.1-1.1V3.4
	c0-0.6,0.5-1.1,1.1-1.1h5.2l-0.3,0.1c-0.9,0.3-1.5,1.2-1.5,2.1v16.9h-3.4c-0.6,0-1.1-0.5-1.1-1.1V18c0-0.6-0.5-1.1-1.1-1.1
	S9,17.4,9,18v2.3c0,1.9,1.5,3.4,3.4,3.4h3.4v1.1c0,1.2,1,2.3,2.2,2.3c0.2,0,0.5,0,0.7-0.1l6.8-2.3c0.9-0.3,1.5-1.2,1.5-2.1V2.3
	C27,0.9,25.9-0.1,24.5,0z"/>
<path d="M12,10.5L7.5,6C7.2,5.6,6.7,5.5,6.3,5.7c-0.4,0.2-0.7,0.6-0.7,1v3.4H1.1c-0.6,0-1.1,0.5-1.1,1.1c0,0.6,0.5,1.1,1.1,1.1h4.5
	v3.4c0,0.5,0.3,0.9,0.7,1c0.4,0.2,0.9,0.1,1.2-0.2L12,12C12.5,11.6,12.5,10.9,12,10.5z"/>
</svg>
