<?xml version="1.0" encoding="utf-8"?>
<!-- Generator: Adobe Illustrator 21.0.0, SVG Export Plug-In . SVG Version: 6.00 Build 0)  -->
<svg version="1.1" id="Слой_1" xmlns="http://www.w3.org/2000/svg" xmlns:xlink="http://www.w3.org/1999/xlink" x="0px" y="0px"
	 viewBox="0 0 28.2 27" enable-background="new 0 0 28.2 27" xml:space="preserve">
<path fill="#FFED49" d="M26.1,18.8h-0.3V17c0-1.6-1.3-2.9-2.9-2.9c-1.6,0-2.9,1.3-2.9,2.9v1.8h-0.3c-1.1,0-2.1,0.9-2.1,2.1v4.1
	c0,1.1,0.9,2.1,2.1,2.1h6.5c1.1,0,2.1-0.9,2.1-2.1v-4.1C28.2,19.7,27.3,18.8,26.1,18.8z M21.7,17c0-0.6,0.5-1.2,1.2-1.2
	c0.6,0,1.2,0.5,1.2,1.2v1.8h-2.3V17z"/>
<path fill="#FFED49" d="M15.8,20.8c0-1.6,1-2.9,2.3-3.5V17c0-0.7,0.2-1.4,0.5-2c-0.9-0.6-2-0.9-3.1-0.9h-10c-3.1,0-5.6,2.5-5.6,5.6
	v4.1c0,0.5,0.4,0.9,0.9,0.9h15V20.8z"/>
<path fill="#FFED49" d="M16.4,5.9c0,3.2-2.6,5.9-5.9,5.9S4.7,9.1,4.7,5.9S7.3,0,10.6,0S16.4,2.6,16.4,5.9z"/>
</svg>
