<?xml version="1.0" encoding="utf-8"?>
<!-- Generator: Adobe Illustrator 21.0.0, SVG Export Plug-In . SVG Version: 6.00 Build 0)  -->
<svg version="1.1" id="Слой_1" xmlns="http://www.w3.org/2000/svg" xmlns:xlink="http://www.w3.org/1999/xlink" x="0px" y="0px"
	 viewBox="0 0 40.8 35.7" enable-background="new 0 0 40.8 35.7" xml:space="preserve">
<path fill="#FFFFFF" d="M20.4,10.2l0,8.9c0,0.3,0.1,0.7,0.4,0.9l6.4,6.4l1.8-1.8l-6-6l0-8.4H20.4z"/>
<path fill="#FFFFFF" d="M23,0C14,0,6.6,6.7,5.3,15.3H0l6.4,6.4l6.4-6.4H7.9C9.1,8.1,15.4,2.6,23,2.6c8.4,0,15.3,6.9,15.3,15.3
	S31.4,33.2,23,33.2c-4.7,0-9.2-2.1-12.1-5.9l-2,1.6c3.4,4.4,8.6,6.9,14.1,6.9c9.9,0,17.9-8,17.9-17.9S32.8,0,23,0L23,0z"/>
</svg>
