<?xml version="1.0" encoding="utf-8"?>
<!-- Generator: Adobe Illustrator 21.0.0, SVG Export Plug-In . SVG Version: 6.00 Build 0)  -->
<svg version="1.1" id="Слой_1" xmlns="http://www.w3.org/2000/svg" xmlns:xlink="http://www.w3.org/1999/xlink" x="0px" y="0px"
	 viewBox="0 0 35.2 35.2" enable-background="new 0 0 35.2 35.2" xml:space="preserve">
<g>
	<path fill="#FFFFFF" d="M17.6,35.2C7.9,35.2,0,27.3,0,17.6C0,7.9,7.9,0,17.6,0c9.7,0,17.6,7.9,17.6,17.6
		C35.2,27.3,27.3,35.2,17.6,35.2z M17.6,2C9,2,2,9,2,17.6s7,15.6,15.6,15.6c8.6,0,15.6-7,15.6-15.6S26.2,2,17.6,2z"/>
</g>
<path fill="#FFFFFF" d="M26.4,10.5l-1-1l-7.7,7.7l-7.7-7.7l-1,1l7.7,7.7L9,25.9l1,1l7.7-7.7l7.7,7.7l1-1l-7.7-7.7L26.4,10.5z"/>
</svg>
